# xmcd
#
# Track frame offsets: 
#        150
#        17765
#        34812
#        52040
#        71152
#        82777
#        99930
#        117347
#        131572
#        148160
#
# Disc length: 2208 seconds
#
# Revision: 7
# Processed by: cddbd v1.5.2PL0 Copyright (c) Steve Scherf et al.
# Submitted via: ExactAudioCopy v1.3
#
DISCID=87089e0a
DTITLE=Joe Cocker - Civilized Man
DYEAR=1984
DGENRE=Rockmusik, Popmusik
TTITLE0=Civilized Man
TTITLE1=There Goes My Baby
TTITLE2=Come On In
TTITLE3=Tempted
TTITLE4=Long Drag Off A Cigarette
TTITLE5=I Love The Night
TTITLE6=Crazy In Love
TTITLE7=A Girl Like You
TTITLE8=Hold On (I Feel Our Love Is Changing)
TTITLE9=Even A Fool Would Let Go
EXTD=YEAR: 1984
EXTT0=
EXTT1=
EXTT2=
EXTT3=
EXTT4=
EXTT5=
EXTT6=
EXTT7=
EXTT8=
EXTT9=
PLAYORDER=
